<svg xmlns="http://www.w3.org/2000/svg" width="562" height="267" viewBox="0 0 562 267" version="1.1"><path d="M 95.606 67.163 C 95.292 70.649, 94.914 77.550, 94.767 82.500 L 94.500 91.500 135 91.500 L 175.500 91.500 175.299 89 C 175.188 87.625, 174.803 80.730, 174.444 73.677 L 173.790 60.855 163.645 61.677 C 150.515 62.742, 118.205 62.734, 105.839 61.663 L 96.178 60.827 95.606 67.163 M 91.799 133.237 C 87.427 136.791, 84.474 139.874, 84.968 140.368 C 85.922 141.322, 88.590 141.918, 106.500 145.179 C 126.899 148.893, 157.986 147.916, 175.500 143.009 C 177.150 142.547, 180.188 141.885, 182.250 141.539 C 184.313 141.193, 186 140.520, 186 140.044 C 186 139.569, 182.543 136.420, 178.318 133.047 L 170.635 126.915 163.568 127.707 C 154.554 128.718, 115.693 128.739, 106.500 127.738 L 99.500 126.975 91.799 133.237 M 269.300 133.862 C 258.184 137.703, 251 145.522, 251 153.781 C 251 158.210, 253.501 160.999, 257.473 161.001 C 259.288 161.001, 259.463 160.473, 259.150 155.949 C 258.958 153.170, 259.350 149.568, 260.023 147.944 C 261.138 145.253, 267.769 138.436, 268.531 139.198 C 268.708 139.374, 266.251 151.440, 263.072 166.009 C 259.893 180.579, 257.478 192.838, 257.705 193.250 C 257.932 193.662, 259.561 194, 261.324 194 C 265.288 194, 270.287 196.628, 278.879 203.229 C 287.687 209.996, 293.464 212.565, 296.629 211.123 C 299.414 209.854, 302.991 204.401, 302.996 201.417 C 303 199.538, 302.414 199.333, 297.029 199.333 C 291.913 199.333, 289.730 198.665, 281.779 194.666 C 276.676 192.100, 271.907 190, 271.183 190 C 270.392 190, 270.078 189.301, 270.398 188.250 C 271.368 185.066, 282 134.777, 282 133.375 C 282 131.418, 275.671 131.661, 269.300 133.862 M 291.242 135.034 C 286.123 137.091, 286.285 145.017, 291.486 146.995 C 296.291 148.822, 301.983 143.672, 300.460 138.874 C 299.978 137.354, 295.054 133.798, 293.800 134.063 C 293.635 134.098, 292.484 134.535, 291.242 135.034 M 316.185 136.127 C 313.261 136.496, 310.652 137.014, 310.388 137.279 C 310.123 137.544, 307.958 146.808, 305.577 157.866 C 301.159 178.388, 299.675 182.334, 295.926 183.523 C 291.573 184.905, 291.370 182.765, 294.425 167.719 C 296.013 159.899, 297.524 152.915, 297.783 152.199 C 298.144 151.200, 296.790 150.968, 291.940 151.199 L 285.626 151.500 282.847 164.500 C 279.265 181.254, 279.187 186.277, 282.455 189.545 C 286.401 193.492, 293.178 192.770, 298.620 187.822 C 300.727 185.907, 300.761 185.914, 303.794 188.947 C 306.423 191.577, 307.575 192, 312.107 192 C 324.108 192, 331.563 184.222, 334.054 169.102 C 335.222 162.010, 333.872 156.161, 330.370 153.141 C 328.130 151.209, 326.846 150.870, 323.288 151.271 C 319.616 151.685, 319.012 151.508, 319.399 150.130 C 320.718 145.439, 322.210 137.157, 321.879 136.364 C 321.669 135.861, 319.134 135.755, 316.185 136.127 M 341.996 151.750 C 341.994 152.162, 340.194 160.956, 337.996 171.291 C 335.798 181.626, 334 190.513, 334 191.041 C 334 191.568, 336.663 192, 339.917 192 L 345.834 192 346.843 187.250 C 347.398 184.637, 348.869 177.631, 350.112 171.679 C 352.166 161.845, 352.630 160.726, 355.199 159.397 C 357.901 158, 358.068 158.048, 358.998 160.493 C 360.293 163.900, 362.465 164.580, 365.564 162.550 C 369.187 160.176, 368.718 154.237, 364.733 152.031 C 362.170 150.613, 361.673 150.660, 357.983 152.667 C 354.144 154.755, 354 154.764, 354 152.917 C 354 151.241, 353.247 151, 348 151 C 344.700 151, 341.998 151.338, 341.996 151.750 M 378.798 152.362 C 374.369 154.327, 370.904 158.150, 367.952 164.328 C 361.133 178.596, 364.394 192, 374.685 192 C 378.366 192, 382.874 190.062, 384.917 187.601 C 386.031 186.258, 386.495 186.435, 388.683 189.035 C 390.717 191.453, 391.951 192, 395.366 192 C 397.670 192, 400.555 191.299, 401.777 190.443 C 403.789 189.034, 404 189.034, 404 190.443 C 404 191.677, 405.229 192, 409.920 192 L 415.840 192 417.359 185.250 C 418.195 181.537, 419.674 174.605, 420.646 169.844 C 422.178 162.333, 422.782 160.969, 425.209 159.536 C 427.945 157.919, 428.027 157.940, 428.988 160.468 C 430.269 163.838, 432.449 164.591, 435.374 162.674 C 439.752 159.806, 439.240 153.978, 434.416 151.780 C 432.167 150.755, 431.195 150.893, 427.887 152.705 C 424.130 154.763, 424 154.770, 424 152.917 C 424 151.247, 423.249 151, 418.163 151 L 412.326 151 409.515 164.750 C 406.218 180.874, 405.460 182.846, 402.255 183.651 C 397.750 184.782, 397.603 183.040, 400.892 167.533 C 402.601 159.475, 404 152.458, 404 151.941 C 404 151.423, 401.300 151, 398 151 C 394.531 151, 392 151.437, 392 152.035 C 392 152.749, 391.399 152.749, 390.066 152.035 C 387.553 150.691, 382.215 150.845, 378.798 152.362 M 439.093 166.359 C 435.702 182.625, 435.731 185.813, 439.306 189.750 C 441.736 192.426, 446.685 192.732, 451.050 190.474 C 452.672 189.635, 454 189.389, 454 189.928 C 454 190.466, 452.087 191.766, 449.750 192.817 C 442.841 195.924, 440.550 199.260, 440.885 205.727 C 441.141 210.690, 450.344 212.942, 456.776 209.616 C 460.397 207.744, 463.630 202.163, 464.597 196.120 C 465.067 193.179, 465.834 191.873, 467.373 191.391 C 471.947 189.959, 478.979 182.007, 478.995 178.250 C 479.007 175.387, 475.320 177.146, 473.723 180.766 C 472.180 184.263, 465.421 189.882, 466.465 186.799 C 466.945 185.384, 474 152.341, 474 151.510 C 474 151.229, 471.330 151, 468.067 151 C 463.270 151, 462.041 151.335, 461.646 152.750 C 461.377 153.713, 460.192 159.225, 459.012 165 C 457.832 170.775, 456.385 176.755, 455.796 178.290 C 454.792 180.903, 451.528 184, 449.777 184 C 448.347 184, 448.978 177.262, 451.500 165.597 C 452.875 159.237, 454 153.351, 454 152.517 C 454 151.334, 452.712 151, 448.147 151 L 442.295 151 439.093 166.359 M 385.248 157.291 C 379.786 159.756, 374.394 179.621, 378.394 182.546 C 380.515 184.097, 383.758 183.321, 385.021 180.962 C 386.270 178.626, 390 162.603, 390 159.568 C 390 156.734, 388.295 155.917, 385.248 157.291 M 319.500 157.995 C 317.884 158.609, 317.052 160.917, 315.168 170.010 C 313.116 179.913, 313.013 181.441, 314.307 182.735 C 317.803 186.232, 322.089 181.717, 324.608 171.885 C 327.099 162.161, 324.824 155.975, 319.500 157.995 M 448.223 198.557 C 447 199.413, 446 200.961, 446 201.998 C 446 205.716, 448.737 205.331, 450.850 201.316 C 453.118 197.007, 452.045 195.879, 448.223 198.557" stroke="none" fill="#cb1718" fill-rule="evenodd"/><path d="M 174.218 57.261 C 173.567 58.062, 173.505 61.681, 174.045 67.500 C 175.413 82.249, 175.456 91.348, 174.159 91.780 C 173.522 91.993, 173 93.254, 173 94.583 C 173 96.065, 172.420 97, 171.500 97 C 170.659 97, 170 97.892, 170 99.031 C 170 100.149, 170.675 101.322, 171.500 101.638 C 172.693 102.096, 173 104.236, 173 112.107 C 173 120.234, 172.732 122, 171.500 122 C 170.610 122, 170.001 122.916, 170.002 124.250 C 170.004 125.868, 172.252 128.276, 178.002 132.821 C 182.401 136.297, 186 139.539, 186 140.025 C 186 140.512, 184.313 141.189, 182.250 141.532 C 175.027 142.731, 172.802 144.014, 157.904 155.575 C 149.647 161.982, 142.681 167.014, 142.423 166.757 C 142.166 166.500, 148.249 161.407, 155.940 155.440 C 163.631 149.473, 169.829 144.504, 169.712 144.398 C 169.234 143.963, 157.337 146.085, 155.282 146.971 C 154.062 147.498, 149.071 151.043, 144.191 154.851 L 135.319 161.774 125.217 154.023 C 116.453 147.299, 114.413 146.181, 109.808 145.581 C 106.888 145.200, 103.375 144.622, 102 144.298 C 100.608 143.969, 106.036 148.759, 114.242 155.103 C 122.351 161.372, 128.568 166.640, 128.059 166.811 C 127.550 166.982, 120.122 161.714, 111.553 155.104 C 100.137 146.298, 94.973 142.923, 92.236 142.479 C 88.198 141.824, 83.507 140.143, 84.121 139.572 C 86.985 136.905, 99.692 127.002, 100.250 127.001 C 100.662 127.001, 101 125.875, 101 124.500 C 101 122.500, 100.500 122, 98.500 122 C 96.008 122, 96 121.968, 96 112.475 C 96 103.236, 96.075 102.922, 98.500 102 C 100.031 101.418, 101 100.264, 101 99.025 C 101 97.532, 100.344 97, 98.500 97 C 96.558 97, 96 96.487, 96 94.700 C 96 93.435, 95.571 91.971, 95.048 91.448 C 94.445 90.845, 94.468 84.500, 95.112 74.146 C 95.672 65.153, 95.895 57.561, 95.608 57.274 C 95.321 56.988, 94.392 57.019, 93.543 57.345 C 92.225 57.851, 92 60.779, 92 77.386 L 92 96.835 82.750 99.933 C 77.662 101.637, 72.872 103.429, 72.104 103.915 C 69.997 105.248, 71.589 108, 74.469 108 L 77 108 76.994 119.750 L 76.987 131.500 73.994 133.203 C 71.279 134.748, 71 135.385, 71 140.042 L 71 145.176 78.417 144.867 L 85.834 144.557 103.389 158.029 C 113.045 165.438, 120.957 171.810, 120.972 172.190 C 120.988 172.569, 112.914 179.094, 103.031 186.690 C 93.148 194.285, 85.048 201.063, 85.031 201.750 C 85.011 202.547, 86.450 203, 89 203 C 94.860 203, 94.129 205.017, 86.033 211.189 C 82.202 214.110, 79.052 216.838, 79.033 217.250 C 79.015 217.662, 81.588 217.985, 84.750 217.966 L 90.500 217.931 112.897 200.502 L 135.293 183.073 137.897 184.946 C 139.329 185.976, 149.500 193.823, 160.500 202.383 C 180.460 217.918, 180.510 217.948, 185.750 217.974 C 188.637 217.988, 191 217.651, 191 217.224 C 191 216.797, 187.850 214.091, 184 211.210 C 175.657 204.966, 175.058 203, 181.500 203 C 183.975 203, 186 202.567, 186 202.038 C 186 201.509, 177.787 194.716, 167.750 186.943 C 157.713 179.170, 149.584 172.591, 149.686 172.323 C 150.240 170.875, 185.610 144.210, 186.196 144.799 C 186.579 145.185, 189.617 145.348, 192.947 145.161 L 199 144.822 198.994 139.661 C 198.988 134.978, 198.710 134.342, 195.994 132.797 L 193 131.093 193 119.547 L 193 108 196.070 108 C 198.658 108, 199.089 107.657, 198.820 105.812 C 198.553 103.989, 196.711 103.037, 187.750 100.096 L 177 96.568 177 76.843 C 177 65.994, 176.601 56.871, 176.113 56.570 C 175.626 56.269, 174.773 56.580, 174.218 57.261 M 263.500 56.905 C 261.850 57.323, 259.104 58.393, 257.398 59.282 C 241.873 67.372, 233.914 104.694, 245.538 114.899 C 251.756 120.359, 263.644 119.796, 272.842 113.606 L 277.670 110.357 278.851 113.025 C 281.037 117.963, 287.069 119.279, 293.198 116.154 C 295.807 114.824, 296.675 114.684, 296.303 115.654 C 295.903 116.696, 297.233 117, 302.187 117 L 308.587 117 311.037 104.750 C 313.819 90.838, 316.468 84.500, 319.500 84.500 C 322.224 84.500, 322.589 89.116, 320.568 98.003 C 318.477 107.192, 318.587 111.205, 321.012 114.288 C 324.791 119.092, 333.118 118.697, 338.017 113.482 L 340.327 111.023 341.794 113.117 C 343.641 115.753, 348.938 118.007, 353.218 117.978 C 357.378 117.950, 364.668 114.677, 368.299 111.207 L 371.099 108.531 370.421 112.766 L 369.744 117 375.722 117 L 381.700 117 384.440 104.250 C 387.371 90.613, 389.248 85.502, 391.667 84.574 C 395.822 82.980, 395.889 86.089, 392.085 103.750 L 389.231 117 395.441 117 L 401.651 117 404.435 103.750 C 407.399 89.637, 408.902 85.635, 411.630 84.588 C 415.483 83.110, 415.806 87.584, 412.944 102.820 C 411.286 111.648, 412.406 114.620, 418.226 116.835 C 422.668 118.526, 425.812 117.870, 429.945 114.393 L 433.044 111.786 435.065 114.356 C 438.694 118.970, 446.459 119.090, 451.664 114.613 L 454.422 112.240 457.112 115.120 C 459.988 118.199, 462.982 118.713, 467.685 116.936 C 472.818 114.997, 479 107.683, 479 103.550 C 479 100.782, 476.394 101.910, 473.913 105.750 C 471.356 109.708, 467.658 111.156, 466.671 108.585 C 466.350 107.749, 467.418 100.869, 469.044 93.296 C 470.670 85.723, 472 78.733, 472 77.763 C 472 76.275, 471.065 76, 466 76 C 461.236 76, 460 76.321, 460 77.557 C 460 78.966, 459.789 78.966, 457.777 77.557 C 456.555 76.701, 454.868 76.003, 454.027 76.006 C 450.562 76.018, 444.864 78.244, 441.891 80.745 C 437.924 84.083, 433.384 93.525, 432.475 100.328 C 431.687 106.232, 429.730 109, 426.345 109 C 423.382 109, 423.347 107.447, 426.016 94.665 C 427.836 85.948, 427.889 84.671, 426.564 81.500 C 424.008 75.382, 416.188 74.446, 410.141 79.535 L 407.223 81.990 405.619 79.542 C 403.441 76.217, 397.863 75.218, 393.389 77.352 C 390.452 78.752, 390 78.770, 390 77.484 C 390 76.339, 388.647 76, 384.080 76 L 378.160 76 376.653 82.750 C 375.823 86.463, 374.602 92.318, 373.940 95.763 C 372.954 100.885, 372.101 102.582, 369.256 105.080 C 360.887 112.428, 352 111.755, 352 103.773 C 352 101.824, 352.779 101.207, 356.490 100.214 C 365.167 97.893, 372.031 88.969, 370.500 81.998 C 369.615 77.971, 366.488 75.997, 361.027 76.016 C 351.684 76.050, 343.255 84.363, 341.007 95.758 C 339.311 104.357, 337.043 108.438, 333.750 108.816 C 331.233 109.106, 331.003 108.851, 331.036 105.816 C 331.055 103.992, 331.723 99.800, 332.520 96.500 C 334.047 90.175, 334.420 83.257, 333.379 80.545 C 332.601 78.517, 327.843 75.999, 324.800 76.004 C 323.535 76.006, 321.090 76.867, 319.366 77.919 C 316.266 79.809, 316.237 79.808, 316.746 77.864 C 317.223 76.040, 316.801 75.920, 310.927 76.199 L 304.595 76.500 301.547 91.104 C 299.871 99.136, 297.882 106.448, 297.128 107.354 C 295.364 109.469, 290 109.575, 290 107.495 C 290 106.667, 291.350 99.621, 293 91.837 C 294.650 84.053, 296 77.305, 296 76.842 C 296 76.379, 293.330 76, 290.067 76 C 285.273 76, 284.040 76.336, 283.638 77.750 C 283.365 78.713, 282.126 84.450, 280.884 90.500 C 279.643 96.550, 277.998 102.490, 277.230 103.701 C 274.215 108.454, 262.861 111.602, 258.039 109.021 C 255.685 107.761, 254 102.876, 254 97.309 C 254 85.615, 260.257 67.302, 265.722 63.004 C 268.725 60.642, 272.788 60.685, 274.296 63.095 C 275.482 64.990, 274.575 69.283, 272.563 71.294 C 270.667 73.190, 272.416 75, 276.143 75 C 283.719 75, 283.846 61.151, 276.297 58.181 C 272.189 56.565, 266.913 56.039, 263.500 56.905 M 288.750 60.581 C 283.183 63.583, 285.633 73, 291.981 73 C 295.112 73, 299 69.287, 299 66.296 C 299 63.754, 296.199 60.362, 293.500 59.636 C 292.400 59.339, 290.262 59.765, 288.750 60.581 M 359.247 82.250 C 357.689 84.204, 354.833 90.097, 353.945 93.192 C 353.272 95.538, 353.440 96, 354.966 96 C 358.886 96, 365.485 85.212, 363.515 82.024 C 362.648 80.621, 360.455 80.737, 359.247 82.250 M 451.170 84.319 C 447.972 87.723, 444.825 97.900, 445.191 103.652 C 445.469 108.009, 445.759 108.530, 448.052 108.797 C 451.915 109.247, 453.799 106.307, 455.986 96.412 C 458.673 84.259, 458.624 82, 455.674 82 C 454.395 82, 452.368 83.044, 451.170 84.319 M 177 112.893 C 177 118.604, 177.393 122, 178.053 122 C 178.632 122, 180.762 123.125, 182.785 124.500 C 184.809 125.875, 186.810 127, 187.232 127 C 187.654 127, 188 122.774, 188 117.609 L 188 108.217 183.750 106.499 C 181.412 105.554, 178.938 104.557, 178.250 104.283 C 177.305 103.907, 177 106.009, 177 112.893 M 85.250 106.839 L 81 108.438 81 118.219 C 81 123.599, 81.195 128, 81.434 128 C 81.672 128, 84.147 126.583, 86.934 124.851 L 92 121.701 92 113.351 C 92 104.116, 92.137 104.248, 85.250 106.839 M 113.169 188.446 C 99.437 199.262, 93.577 204.339, 97 202.457 C 100.286 200.649, 128 178.657, 128 177.856 C 128 176.685, 129.083 175.912, 113.169 188.446 M 142 177.719 C 142 178.244, 148.605 183.810, 156.677 190.087 C 172.768 202.599, 174.435 203.772, 173.873 202.185 C 173.668 201.606, 168.100 196.926, 161.500 191.784 C 143.528 177.781, 142 176.680, 142 177.719" stroke="none" fill="#040404" fill-rule="evenodd"/></svg>