<svg xmlns="http://www.w3.org/2000/svg" width="562" height="267" viewBox="0 0 562 267" version="1.1">
  <path d="M 95.606 67.163 C 95.292 70.649, 94.914 77.550, 94.767 82.500 L 94.500 91.500 135 91.500 L 175.500 91.500 175.299 89 C 175.188 87.625, 174.803 80.730, 174.444 73.677 L 173.790 60.855 163.645 61.677 C 150.515 62.742, 118.205 62.734, 105.839 61.663 L 96.178 60.827 95.606 67.163 M 91.799 133.237 C 87.427 136.791, 84.474 139.874, 84.968 140.368 C 85.922 141.322, 88.590 141.918, 106.500 145.179 C 126.899 148.893, 157.986 147.916, 175.500 143.009 C 177.150 142.547, 180.188 141.885, 182.250 141.539 C 184.313 141.193, 186 140.520, 186 140.044 C 186 139.569, 182.543 136.420, 178.318 133.047 L 170.635 126.915 163.568 127.707 C 154.554 128.718, 115.693 128.739, 106.500 127.738 L 99.500 126.975 91.799 133.237 M 269.300 133.862 C 258.184 137.703, 251 145.522, 251 153.781 C 251 158.210, 253.501 160.999, 257.473 161.001 C 259.288 161.001, 259.463 160.473, 259.150 155.949 C 258.958 153.170, 259.350 149.568, 260.023 147.944 C 261.138 145.253, 267.769 138.436, 268.531 139.198 C 268.708 139.374, 266.251 151.440, 263.072 166.009 C 259.893 180.579, 257.478 192.838, 257.705 193.250 C 257.932 193.662, 259.561 194, 261.324 194 C 265.288 194, 270.287 196.628, 278.879 203.229 C 287.687 209.996, 293.464 212.565, 296.629 211.123 C 299.414 209.854, 302.991 204.401, 302.996 201.417 C 303 199.538, 302.414 199.333, 297.029 199.333 C 291.913 199.333, 289.730 198.665, 281.779 194.666 C 276.676 192.100, 271.907 190, 271.183 190 C 270.392 190, 270.078 189.301, 270.398 188.250 C 271.368 185.066, 282 134.777, 282 133.375 C 282 131.418, 275.671 131.661, 269.300 133.862 M 291.242 135.034 C 286.123 137.091, 286.285 145.017, 291.486 146.995 C 296.291 148.822, 301.983 143.672, 300.460 138.874 C 299.978 137.354, 295.054 133.798, 293.800 134.063 C 293.635 134.098, 292.484 134.535, 291.242 135.034 M 316.185 136.127 C 313.261 136.496, 310.652 137.014, 310.388 137.279 C 310.123 137.544, 307.958 146.808, 305.577 157.866 C 301.159 178.388, 299.675 182.334, 295.926 183.523 C 291.573 184.905, 291.370 182.765, 294.425 167.719 C 296.013 159.899, 297.524 152.915, 297.783 152.199 C 298.144 151.200, 296.790 150.968, 291.940 151.199 L 285.626 151.500 282.847 164.500 C 279.265 181.254, 279.187 186.277, 282.455 189.545 C 286.401 193.492, 293.178 192.770, 298.620 187.822 C 300.727 185.907, 300.761 185.914, 303.794 188.947 C 306.423 191.577, 307.575 192, 312.107 192 C 324.108 192, 331.563 184.222, 334.054 169.102 C 335.222 162.010, 333.872 156.161, 330.370 153.141 C 328.130 151.209, 326.846 150.870, 323.288 151.271 C 319.616 151.685, 319.012 151.508, 319.399 150.130 C 320.718 145.439, 322.210 137.157, 321.879 136.364 C 321.669 135.861, 319.134 135.755, 316.185 136.127 M 341.996 151.750 C 341.994 152.162, 340.194 160.956, 337.996 171.291 C 335.798 181.626, 334 190.513, 334 191.041 C 334 191.568, 336.663 192, 339.917 192 L 345.834 192 346.843 187.250 C 347.398 184.637, 348.869 177.631, 350.112 171.679 C 352.166 161.845, 352.630 160.726, 355.199 159.397 C 357.901 158, 358.068 158.048, 358.998 160.493 C 360.293 163.900, 362.465 164.580, 365.564 162.550 C 369.187 160.176, 368.718 154.237, 364.733 152.031 C 362.170 150.613, 361.673 150.660, 357.983 152.667 C 354.144 154.755, 354 154.764, 354 152.917 C 354 151.241, 353.247 151, 348 151 C 344.700 151, 341.998 151.338, 341.996 151.750 M 378.798 152.362 C 374.369 154.327, 370.904 158.150, 367.952 164.328 C 361.133 178.596, 364.394 192, 374.685 192 C 378.366 192, 382.874 190.062, 384.917 187.601 C 386.031 186.258, 386.495 186.435, 388.683 189.035 C 390.717 191.453, 391.951 192, 395.366 192 C 397.670 192, 400.555 191.299, 401.777 190.443 C 403.789 189.034, 404 189.034, 404 190.443 C 404 191.677, 405.229 192, 409.920 192 L 415.840 192 417.359 185.250 C 418.195 181.537, 419.674 174.605, 420.646 169.844 C 422.178 162.333, 422.380 161.842, 423.960 160.519 C 424.659 159.998, 424.276 159.313, 424.027 158.879 C 423.295 157.753, 420.960 157.389, 417.770 158.409 C 413.451 160.038, 408.834 162.215, 405.152 164.168 C 403.390 165.416, 402.124 165.258, 401.211 164.438 C 400.084 163.475, 399.330 161.981, 399.501 160.743 C 399.928 158.957, 400.084 157.581, 400.011 157.337 C 399.444 156.347, 398.200 156.235, 397.146 157.071 C 396.143 157.872, 394.618 160.477, 393.845 163.508 C 391.781 170.737, 387.220 172.287, 378.798 152.362 Z" fill="#ffffff"/>
</svg>
